{
  "asset": {
    "version": "2.0"
  },
  "scene": 0,
  "scenes": [
    {
      "nodes": [
        0,
        1
      ]
    }
  ],
  "nodes": [
    {
      "mesh": 0,
      "skin": 0
    },
    {
      "name": "joint"
    }
  ],
  "meshes": [
    {
      "primitives": [
        {
          "attributes": {
            "POSITION": 0,
            "NORMAL": 1,
            "JOINTS_0": 2,
            "WEIGHTS_0": 3
          },
          "indices": 4,
          "material": 0
        },
        {
          "attributes": {
            "POSITION": 5,
            "NORMAL": 6,
            "JOINTS_0": 7,
            "WEIGHTS_0": 8
          },
          "indices": 9,
          "material": 1
        }
      ]
    }
  ],
  "skins": [
    {
      "joints": [
        1
      ],
      "inverseBindMatrices": 10
    }
  ],
  "materials": [
    {
      "pbrMetallicRoughness": {
        "baseColorFactor": [
          0.8,
          0.05,
          0.05,
          1
        ],
        "metallicFactor": 0,
        "roughnessFactor": 1
      },
      "extensions": {
        "KHR_materials_unlit": {}
      }
    },
    {
      "pbrMetallicRoughness": {
        "baseColorFactor": [
          0.05,
          0.8,
          0.05,
          1
        ],
        "metallicFactor": 0,
        "roughnessFactor": 1
      },
      "extensions": {
        "KHR_materials_unlit": {}
      }
    }
  ],
  "animations": [
    {
      "name": "move-both",
      "samplers": [
        {
          "input": 11,
          "output": 12,
          "interpolation": "LINEAR"
        }
      ],
      "channels": [
        {
          "sampler": 0,
          "target": {
            "node": 1,
            "path": "translation"
          }
        }
      ]
    }
  ],
  "extensionsUsed": [
    "KHR_materials_unlit"
  ],
  "buffers": [
    {
      "uri": "data:application/octet-stream;base64,",
      "byteLength": 400
    }
  ],
  "bufferViews": [
    {
      "buffer": 0,
      "byteOffset": 0,
      "byteLength": 36
    },
    {
      "buffer": 0,
      "byteOffset": 36,
      "byteLength": 36
    },
    {
      "buffer": 0,
      "byteOffset": 72,
      "byteLength": 24
    },
    {
      "buffer": 0,
      "byteOffset": 96,
      "byteLength": 48
    },
    {
      "buffer": 0,
      "byteOffset": 144,
      "byteLength": 6
    },
    {
      "buffer": 0,
      "byteOffset": 152,
      "byteLength": 36
    },
    {
      "buffer": 0,
      "byteOffset": 188,
      "byteLength": 36
    },
    {
      "buffer": 0,
      "byteOffset": 224,
      "byteLength": 24
    },
    {
      "buffer": 0,
      "byteOffset": 248,
      "byteLength": 48
    },
    {
      "buffer": 0,
      "byteOffset": 296,
      "byteLength": 6
    },
    {
      "buffer": 0,
      "byteOffset": 304,
      "byteLength": 64
    },
    {
      "buffer": 0,
      "byteOffset": 368,
      "byteLength": 8
    },
    {
      "buffer": 0,
      "byteOffset": 376,
      "byteLength": 24
    }
  ],
  "accessors": [
    {
      "bufferView": 0,
      "componentType": 5126,
      "count": 3,
      "type": "VEC3",
      "min": [
        -0.8,
        -0.4,
        0
      ],
      "max": [
        -0.20000000000000007,
        0.4,
        0
      ]
    },
    {
      "bufferView": 1,
      "componentType": 5126,
      "count": 3,
      "type": "VEC3"
    },
    {
      "bufferView": 2,
      "componentType": 5123,
      "count": 3,
      "type": "VEC4"
    },
    {
      "bufferView": 3,
      "componentType": 5126,
      "count": 3,
      "type": "VEC4"
    },
    {
      "bufferView": 4,
      "componentType": 5123,
      "count": 3,
      "type": "SCALAR"
    },
    {
      "bufferView": 5,
      "componentType": 5126,
      "count": 3,
      "type": "VEC3",
      "min": [
        0.2,
        -0.4,
        0
      ],
      "max": [
        0.8,
        0.4,
        0
      ]
    },
    {
      "bufferView": 6,
      "componentType": 5126,
      "count": 3,
      "type": "VEC3"
    },
    {
      "bufferView": 7,
      "componentType": 5123,
      "count": 3,
      "type": "VEC4"
    },
    {
      "bufferView": 8,
      "componentType": 5126,
      "count": 3,
      "type": "VEC4"
    },
    {
      "bufferView": 9,
      "componentType": 5123,
      "count": 3,
      "type": "SCALAR"
    },
    {
      "bufferView": 10,
      "componentType": 5126,
      "count": 1,
      "type": "MAT4"
    },
    {
      "bufferView": 11,
      "componentType": 5126,
      "count": 2,
      "type": "SCALAR",
      "min": [
        0
      ],
      "max": [
        1
      ]
    },
    {
      "bufferView": 12,
      "componentType": 5126,
      "count": 2,
      "type": "VEC3"
    }
  ]
}
